<svg version="1" xmlns="http://www.w3.org/2000/svg" width="1365.333" height="1365.333" viewBox="0 0 1024.000000 1024.000000"><path d="M413.8 192.8c-4 4.3-5.5 5.2-10.2 6.1-3.1.6-8.1 1.6-11.2 2.2-4.3.8-6.7 2-9.8 4.9-3 2.7-5.9 4.2-10.5 5.4-8.1 2.1-11.8 4.4-17.7 10.9-7.7 8.5-11.6 15.1-12.1 20.4-.4 3.6-1.4 5.7-3.7 8.3-9.4 10.3-12.3 16.3-13.5 28.5-.6 6.2-1.1 8.1-2.6 8.9-3.6 2-7.2 6.5-10.6 13.1l-3.4 6.5 1.9 4.7c2.8 7.4 3 11.2.7 22.3-2.7 13-2.7 20 0 27.5s2.6 11.1-.5 26.6c-5.5 27.7-5.9 33.7-6.2 88.4-.1 33.1-.6 54-1.4 59.5-.6 4.7-1.3 8.6-1.5 8.8-.2.2-2.9-4.7-6.2-10.9-6.5-12.7-17-25.1-19.1-22.6-2 2.4-3.2 10.2-3 21.2 0 6 .3 9.6.5 8 .7-6 1.4-7.5 3.1-7.5 3 0 9 4.8 11.7 9.4 2.5 4.3 2.8 5.7 5.5 30 .7 5.4 2.5 14.6 4.1 20.3 3.1 11.2 5.7 27.9 4.6 30.6-1 2.8-5.4 2-9.2-1.6-1.9-1.7-5.1-6.1-7.1-9.7-1.9-3.6-3.3-5.6-3-4.5 2 8.3 3 10.6 6.4 15 4.5 6 7.2 7.5 13.3 7.5h4.6l.6 6.8c.4 3.8 1.9 12.4 3.3 19.3 1.4 6.8 3.6 17.3 4.9 23.4 6.7 32.2 21 62 38.2 79.3 6.2 6.1 16 15 20.2 18.2 54.9 41.3 75 52.1 105.1 56.5 13.9 2.1 43.4 1.6 54.3-.9 17.5-3.9 40.7-14 70.7-30.6 5.2-2.9 11.1-6.1 13-7.2 6.7-3.6 17.6-10.9 25.3-16.9 22.4-17.7 42.3-50.4 52.3-85.9 1.4-5.2 4.1-14.7 5.9-21l3.2-11.5 5.4-.5c3-.3 6.4-1.1 7.6-1.8 4.6-2.6 12.9-16 14.7-23.7.4-2.1-.4-1.1-2.6 3-6 11-16.7 20-20 16.7-1.5-1.5 2.2-13.8 7.2-24.7 5.8-12.6 8.7-21 12.4-35.4 3.8-14.4 6.7-20.1 11.7-22.6 4.5-2.4 5.9-1.4 5.9 4.2 0 7.6 1.8 3.9 3.6-7.6 1.7-10.9 1.5-21.4-.4-23.3-1.6-1.6-13.6 10.3-20.9 20.8-3.2 4.5-6.2 8-6.6 7.7-1.3-.8.3-23.1 1.9-27.8.8-2.2 1.6-4.9 1.8-6 3.5-19.8 7-45.8 11.2-84.5 1.9-17.2 2.7-29.6 2.7-41.5 0-25.4-2.9-36.2-13.5-50.6l-6.3-8.4v-14c-.1-12.6-.4-14.7-2.7-20.8-8.2-21.2-25.1-36.9-58.4-54.1-4.9-2.6-12.7-7.4-17.4-10.6-11.7-8.3-28.4-17.9-43.2-24.9-12.8-6.1-21.5-9.2-33.2-11.7-3.8-.8-8.3-2.3-10-3.3-4.3-2.6-15.1-7.1-21.1-8.7-7.3-2-27.7-4.4-31.7-3.7-2.5.3-5-.2-8.4-1.7-6.9-3.2-18.1-6-23.7-6-2.6 0-7.5.9-10.9 2.1-7.2 2.4-8.1 2.2-21-3.7-6-2.8-11.7-4.7-15-5.1l-5.3-.5-4.7 5zm20.7 147.7c18 2.7 46.6 7.7 57.5 10 8.4 1.8 21.6 3.1 46.6 4.6 20.4 1.2 29.4.7 64.4-3.1 20.8-2.4 47.4-.1 58.3 4.9 15.7 7.1 28.9 18.6 35.3 30.6 5.7 10.8 6.4 14 5.3 25.3-.9 10.5-4.3 28.2-5.9 31.1-1.1 2.1-1.1 2.3-1 21.6 0 12.6-.8 20.2-3.9 38.1-.5 2.8-1.3 16.6-1.6 30.5-.7 23.9-.6 25.9 1.4 33.6 1.7 6.6 2.1 11 2 23 0 8.1-.4 17.9-.9 21.8-.5 3.8-1.6 14-2.5 22.5-3.2 32.1-8.4 46.1-23.5 63.5-5.6 6.5-15.9 16.5-16.9 16.5-.4 0-2.1 1.3-3.8 2.9-1.7 1.5-4.9 3.9-7 5.1-6.2 3.8-10 8.4-13.8 16.4-1.9 4.1-3.5 7.8-3.5 8.2 0 .3-.6 2-1.4 3.7-.7 1.8-1.8 5-2.5 7.2-1.9 7.2-17.5 22.3-27.7 27.1-2.2 1-4.1 2.1-4.4 2.5-.9 1.3-6.9-2.2-7.7-4.5-1-3.1-.6-14.7.6-15.9 1.3-1.3 1.5-7.7.2-7.7-.4 0-3.2 1.9-6.1 4.2l-5.3 4.2 3.8-6.9c2.2-3.9 4.7-8.4 5.7-10 3-5 2-6.1-1.8-1.9l-3.5 3.9 3.7-6c2.1-3.3 4.6-7.6 5.8-9.5 1.1-1.9 3.7-5.8 5.8-8.6 2.1-2.8 3.8-5.4 3.8-5.9 0-.4 1.2-2.4 2.8-4.4 1.5-2 3.5-5.3 4.4-7.3.9-2.1 2.4-3.8 3.2-3.8 1.9 0 6 5.4 7.7 10.3 2 5.6 3.4 6.4 5.6 3.1 1.3-2.1 1.8-4.7 1.8-9.9-.1-5.8-.6-8.1-3.3-13.7-3.4-7-8.3-11.8-11.9-11.8-1.8 0-2.3 1-3.2 6.1-1.2 6.9-2.1 8.4-6.5 10.5-1.7.8-4.9 2.5-7.1 3.9-2.2 1.4-6.9 3.4-10.3 4.6-6.2 2-7.1 2.1-25 1-23-1.3-52.6-2.8-81.8-4l-22.2-.9-8-3.6c-8.7-4-10.9-4.3-13.7-2.2-1.7 1.3-1.8 1.8-.8 5.3 2.4 8 4.6 13.9 5.9 15.3.9 1.2 9.5 18.3 12.2 24.5.3.5-.8-.1-2.3-1.5l-2.7-2.5.7 2.5c.4 1.4 3.1 7.2 6.1 13 2.9 5.7 5.1 10.6 4.9 10.8-.2.2-2.7-1.7-5.5-4.4-5.8-5.4-8-5.1-5.6.8 2.7 6.3 3 13.2 1 18.8-2.2 6.2-4.3 7.7-8.7 5.9-4.9-1.9-16.5-10.7-21.5-16.3-6.6-7.3-10.2-11.8-10.2-12.6 0-.5-.6-1.5-1.3-2.2-2.8-2.9-5.5-8.5-6.1-12.8-1.5-10.1-8.9-24.6-16.7-33-12.1-12.9-17.7-19.7-24.2-29.2-8.4-12.2-13.1-22.2-16.5-35.1-2.7-10.1-2.7-10.4-2.6-43.7.1-36.2 1.3-50.1 5.9-70 1.3-5.8 3.4-17.7 4.7-26.5 2.5-17.2 2.9-38.1 1.5-68-.4-8.3-1-20-1.2-26-.5-9.1-.2-12.4 1.5-19 4.7-18.2 17.2-37.1 30.6-46.3 7.7-5.3 27.8-11 38.9-11.1 3.9-.1 14.7 1 24 2.4zm9.5 412.6c1.5 2.8.5 2.3-1.5-.7-.9-1.5-1.2-2.3-.6-2 .6.4 1.6 1.6 2.1 2.7zm97 17.4c0 .8-10.1 5.6-16 7.7-13.6 4.7-27.5 4.4-40.7-.9-9.7-3.9-9.7-5.3 0-3.2 11.8 2.6 30.8 2.5 43.5-.2 5.3-1.2 10.4-2.5 11.2-3 1.8-1 2-1.1 2-.4z"/><path d="M398.3 443.5c-23.8 4.2-47.3 16.6-47.3 24.9 0 4.6 2.2 5.1 11.2 2.3 4.6-1.4 10.6-3.3 13.4-4.1 9-2.5 24.1-3.9 36.3-3.3 10.5.5 13.1 1 26.8 5.6 19 6.3 24.8 6.7 29.5 2.1 2.8-2.8 3-3.5 2.5-7.8-.4-3.9-1.2-5.3-4.3-7.9-4.5-3.9-16-8.5-26.9-10.8-11.2-2.3-31-2.8-41.2-1zM617.2 455c-15 1.9-32.2 7.6-38.1 12.6-4.2 3.6-6.7 9-5.6 12.3 1 3.2-1 5.6-8.6 10.7-6.7 4.5-11.9 9.5-11.9 11.5 0 .4 1.3 1.5 2.9 2.4 2.2 1.1 3.7 1.2 5.6.5 1.5-.6 3.9-1 5.5-1 3 0 21-4.4 24.5-6 1.1-.5 4.6-1.7 7.8-2.5 3.2-.9 7-2.3 8.5-3.1 1.5-.8 3.2-1.4 3.7-1.4 1.2-.1 5.5-3.5 5.5-4.4 0-.3-.6-.6-1.2-.7-.7 0-2.3-1.3-3.6-2.9l-2.2-2.8 5.2-1.7c3.3-1 10.2-1.9 17.8-2.2 10.4-.4 14-.1 21.4 1.6 9.2 2.2 21.1 6.9 25.9 10.3 3.9 2.8 8.7 4 10.4 2.7.7-.6 1.3-2.3 1.3-3.8 0-10.1-22.5-26.5-42-30.6-8.9-1.9-24-2.5-32.8-1.5zM385.8 521c-9.7 1.7-15.8 4.1-21.5 8.4-8.2 6.2-11.5 10.4-11.1 14.1.5 5 3.2 4.3 9.4-2.5 3.2-3.3 7.6-7.2 9.8-8.5 4.3-2.5 12.7-5.8 13.3-5.2.1.2-1.2 3.3-2.9 6.8-3 5.8-3.3 7.2-3.3 15.4 0 8 .3 9.7 3.2 15.7 1.7 3.7 4.3 7.4 5.8 8.4 5.8 3.8 18.4 6.6 32 7.1l13 .5 4.8-4.2c5.9-5.2 9.3-10.9 11-18.5l1.4-6 3.2 4.5c1.9 2.5 5.1 8.1 7.2 12.4 4.1 8.4 5.8 8.5 3.9.2-3-13.6-19.1-32.8-33.7-40.4-13.9-7.2-32.7-10.6-45.5-8.2zm21.5 8.7c2.7 3.1 3 6.6.7 9.5-2.8 3.6-5.3 4.2-8.9 2.3-3.8-1.9-5.3-4.7-4.5-8 1.3-5.1 9.3-7.5 12.7-3.8zm26.7 42.2c0 5.4-7.8 9.2-11.4 5.5-.9-.8-1.6-1.7-1.6-2 0-.7 10.4-6.4 11.8-6.4.7 0 1.2 1.2 1.2 2.9zM614.2 537.6c-16.4 2.7-28.9 9.8-41.5 23.5-7.8 8.4-10.4 12.9-11.2 19.1-.5 3.7-.4 4 .7 2.4 3.8-5.6 12.8-17.3 14.6-18.9 2-1.8 2-1.8 2.7 4 1.2 10.5 8 22.4 14.3 25 4.6 1.9 19.7 2.6 32.2 1.5l10.4-.9 3.9-4.4c7.9-8.9 10.9-18.6 9.5-30.6-.3-3.4-1.4-7.5-2.3-9.2-1.5-2.9-1.5-3.1.4-3.1 5.3 0 18.8 13.7 22.1 22.5.7 1.9 1.5 2.5 2.6 2.1.9-.3 2-.6 2.4-.6.5 0 1.2-1.6 1.6-3.5.5-2.6.2-4.1-1-5.4-.9-1-1.6-2.2-1.6-2.8 0-2.3-13-13.3-18.6-15.8-12.2-5.4-27.1-7.2-41.2-4.9zm-5.7 9.5c1.2 3.5-.4 6.9-3.7 8.3-3.6 1.6-6 1.1-8.3-1.4-2.6-2.8-1.4-5.1 3.5-7.1 5.9-2.4 7.7-2.3 8.5.2zM634 585c0 4.1-3.9 8-8 8-1.6 0-3-.5-3-1.1 0-.5-.4-.8-.9-.5-.5.3-1.1-.1-1.5-.9-.3-1 1.3-2.5 5.2-4.9 7.2-4.3 8.2-4.4 8.2-.6zM560.8 570.9c-1 1-1.8 2.6-1.8 3.7 0 1.6.4 1.4 2.5-1.1 3.6-4.4 3-6.4-.7-2.6zM538.6 636.7c.4 2.7.8 7.6.8 10.9 0 5.1-.5 7-3 11-5.5 9-12.2 11.8-28.4 11.9-11.7 0-18.4-1.8-23.2-6.3-5.4-5-7.3-16.7-4.3-26.5 1.8-6.1 0-6.4-4.5-.7-6.2 7.9-8.9 21.6-5.6 29.4 1.8 4.4 4.4 6.6 14.8 13.1 10.2 6.4 17.5 8.1 30.3 7.2 10.4-.7 11.9-1.4 23-9.7 10.3-7.8 11.5-9.7 11.5-18.9 0-6.6-3.7-17.7-7.5-22.7-3.7-4.9-5-4.4-3.9 1.3zM406.3 694.7c-1.6 3.3-1.6 4.3-.3 4.3 1.4 0 3.3-5.1 2.3-6.1-.4-.4-1.4.4-2 1.8zM299 509.5c.7.9 1.5 1.3 1.7 1.1.7-.7-.7-2.6-1.9-2.6-.6 0-.6.6.2 1.5zM274.1 554.6c0 1.1.3 1.4.6.6.3-.7.2-1.6-.1-1.9-.3-.4-.6.2-.5 1.3zM746.1 583.6c0 1.1.3 1.4.6.6.3-.7.2-1.6-.1-1.9-.3-.4-.6.2-.5 1.3zM280.5 601c.3.5.8 1 1.1 1 .2 0 .4-.5.4-1 0-.6-.5-1-1.1-1-.5 0-.7.4-.4 1z"/></svg>